:SAMPLES-PER-SECOND 30
:FRAME-RANGE 1-1700
:FULLY-SPECIFIED
:DEGREES
1435
root  -13.0139 37.422 -58.4175 169.126 -54.833 169.993
RightUpLeg  -1.59664 0.677145 12.2443
RightLeg  22.9171 0.941929 0.216092
RightFoot  0.0709824 1.79491 -17.7877
RightToes  -1.16417e-010 0 -3.6325e-017
Spine  22.9262 1.11489 -6.69882
Spine1  -0.676425 -3.98091 8.74795
HEad  13.0521 -19.6534 3.68554
LeftShoulder1  2.53662 -4.67355 -24.8409
LeftArm  76.3163 -38.9808 -95.484
LeftForeArm  -2.00573 -13.0382 -15.5003
LeftHand  0.0389741 3.7783 -4.56361
RightShoulder  11.5182 25.3919 33.6726
RightArm  32.3896 11.3762 16.1794
RightForeArm  30.0099 45.083 9.13215
RightHand  1.03785 2.72312 14.5644
LeftUpLeg  -98.2963 19.0112 -80.1625
LeftLeg  117.965 17.6172 -28.1216
LeftFoot  -2.31737 2.84744 -34.876
LeftToes  1.03528e-008 1.55373e-010 -2.26046e-010
1436
root  -13.7061 36.088 -58.039 167.588 -59.416 169.633
RightUpLeg  -6.53696 7.31631 14.1455
RightLeg  37.9265 -10.1177 -8.61736
RightFoot  -7.53287 0.555909 -18.0617
RightToes  -1.16417e-010 0 -3.6325e-017
Spine  25.724 1.51105 -4.70153
Spine1  -1.33753 -2.83884 6.23853
HEad  7.28879 -22.2241 6.51686
LeftShoulder1  2.589 -4.62969 -25.6876
LeftArm  81.3689 -37.4394 -93.8708
LeftForeArm  -7.38626 -14.8863 -14.3757
LeftHand  0.0444311 3.66709 -4.59277
RightShoulder  11.2059 25.7399 32.1229
RightArm  35.9182 9.93156 16.3722
RightForeArm  25.8781 46.4512 9.93089
RightHand  1.00264 1.38796 16.9581
LeftUpLeg  -99.5832 18.6898 -81.3686
LeftLeg  122.644 13.494 -19.1043
LeftFoot  2.71851 4.36222 -34.5164
LeftToes  1.03528e-008 1.55373e-010 -2.26046e-010
1437
root  -14.4447 35.3162 -57.5923 166.703 -65.5444 170.435
RightUpLeg  -10.338 -1.51207 10.9766
RightLeg  45.5893 -7.21861 -8.1372
RightFoot  -12.1423 -0.20297 -17.2353
RightToes  -1.16417e-010 0 -3.6325e-017
Spine  24.1693 0.403094 -3.56115
Spine1  1.79321 -3.81212 6.02624
HEad  1.55717 -22.1817 7.75477
LeftShoulder1  2.70559 -4.68487 -26.9432
LeftArm  84.4282 -36.4666 -90.6136
LeftForeArm  -12.0899 -16.1546 -13.5294
LeftHand  0.0661232 3.08789 -4.34511
RightShoulder  11.7347 27.2709 31.8862
RightArm  37.4523 10.7619 17.7033
RightForeArm  21.9642 42.9175 8.93513
RightHand  1.04579 1.36109 17.7541
LeftUpLeg  -99.8217 19.0072 -81.8313
LeftLeg  124.978 9.25231 -12.5116
LeftFoot  7.99111 5.48031 -31.7116
LeftToes  1.03528e-008 1.55373e-010 -2.26046e-010
1438
root  -15.1394 35.1865 -57.6354 158.032 -72.6374 178.445
RightUpLeg  -8.78604 -9.96546 10.5324
RightLeg  46.3527 -6.75231 -7.85052
RightFoot  -14.6977 -0.60154 -17.0186
RightToes  -1.16417e-010 0 -3.6325e-017
Spine  23.8084 0.966835 -3.99922
Spine1  1.82292 -4.58879 10.3127
HEad  -0.135096 -23.2479 8.97979
LeftShoulder1  2.74795 -4.74653 -27.219
LeftArm  79.8069 -36.1265 -90.6873
LeftForeArm  -3.08324 -14.8857 -14.1407
LeftHand  0.034029 3.5121 -3.45731
RightShoulder  12.0603 26.2223 34.3509
RightArm  37.8731 10.0609 17.6189
RightForeArm  23.44 42.6821 8.75546
RightHand  1.146 2.53799 16.4725
LeftUpLeg  -100.285 22.9329 -79.1005
LeftLeg  127.412 6.38345 -8.15525
LeftFoot  11.092 5.43507 -27.2869
LeftToes  1.03528e-008 1.55373e-010 -2.26046e-010
1439
root  -15.6712 35.3129 -57.4899 149.208 -75.6858 -171.667
RightUpLeg  -8.72882 -10.6447 11.8974
RightLeg  45.8833 -8.60211 -9.6999
RightFoot  -15.1576 -0.605783 -15.0239
RightToes  -1.16417e-010 0 -3.6325e-017
Spine  23.7677 1.25441 -0.900817
Spine1  -0.873788 -3.48519 9.03611
HEad  -0.639181 -22.7654 10.1571
LeftShoulder1  2.63145 -4.34849 -27.4279
LeftArm  81.1289 -35.2315 -87.9023
LeftForeArm  -8.83161 -15.6582 -13.7915
LeftHand  0.0772819 3.08225 -4.91466
RightShoulder  12.7826 25.0008 38.5531
RightArm  35.2276 10.9559 17.9422
RightForeArm  25.9004 41.1917 8.10773
RightHand  1.18632 3.10648 15.8729
LeftUpLeg  -107.052 25.9108 -79.5234
LeftLeg  128.314 5.67101 -7.08762
LeftFoot  12.0258 4.41567 -21.4923
LeftToes  1.03528e-008 1.55373e-010 -2.26046e-010
1440
root  -15.9296 36.1636 -57.2358 144.06 -79.9539 -164.918
RightUpLeg  -7.45277 -13.5922 9.97931
RightLeg  40.7229 -9.15663 -8.63757
RightFoot  -13.2262 -0.318273 -13.8633
RightToes  -1.16417e-010 0 -3.6325e-017
Spine  22.2329 1.80136 -1.29398
Spine1  -1.11241 -3.38981 9.25023
HEad  -2.06817 -21.4418 10.2766
LeftShoulder1  2.61134 -4.39723 -26.9519
LeftArm  75.2053 -35.9968 -85.5854
LeftForeArm  -8.95269 -14.3078 -14.9312
LeftHand  0.127425 2.5856 -6.02416
RightShoulder  13.3484 26.1065 38.7468
RightArm  34.1106 12.3708 19.6666
RightForeArm  25.2867 40.2409 7.85233
RightHand  1.19491 3.66459 14.9677
LeftUpLeg  -112.673 27.6131 -83.0815
LeftLeg  127.423 8.05742 -10.1182
LeftFoot  14.8396 4.87955 -21.1724
LeftToes  1.03528e-008 1.55373e-010 -2.26046e-010
1441
root  -15.934 37.3242 -56.7805 132.988 -85.1857 -151.666
RightUpLeg  -5.74011 -16.4379 6.92393
RightLeg  32.7167 -9.69451 -6.89864
RightFoot  -9.29127 0.155403 -12.1201
RightToes  -1.16417e-010 0 -3.6325e-017
Spine  21.7931 1.75586 -0.980721
Spine1  -2.25084 -3.21101 7.37022
HEad  -3.33467 -19.7691 8.46987
LeftShoulder1  2.64953 -4.55467 -26.7751
LeftArm  64.7054 -37.6211 -85.1595
LeftForeArm  1.08491 -11.2337 -16.4967
LeftHand  0.0886039 3.19786 -5.84641
RightShoulder  13.4369 27.352 37.2286
RightArm  33.7583 12.7242 21.4138
RightForeArm  29.2308 40.4809 7.67226
RightHand  1.16544 3.23142 15.359
LeftUpLeg  -115.548 26.9982 -86.3675
LeftLeg  125.818 10.1076 -13.1837
LeftFoot  16.3079 7.14126 -28.8881
LeftToes  1.03528e-008 1.55373e-010 -2.26046e-010
1442
root  -15.9569 38.4738 -56.4622 41.3676 -87.8556 -57.166
RightUpLeg  -3.9975 -13.2962 5.7847
RightLeg  23.5137 -16.1894 -7.58756
RightFoot  -4.86422 0.53529 -10.0044
RightToes  -1.16417e-010 0 -3.6325e-017
Spine  21.1726 2.10619 -0.749662
Spine1  -3.83931 -2.78682 5.07869
HEad  -4.62834 -15.7881 4.93129
LeftShoulder1  2.6669 -4.58661 -26.8631
LeftArm  60.3281 -37.5534 -84.9798
LeftForeArm  4.34356 -9.94904 -17.0335
LeftHand  0.100561 3.08563 -6.13908
RightShoulder  13.1142 27.7695 35.6422
RightArm  34.5432 12.2536 22.8266
RightForeArm  32.3728 41.1555 7.67784
RightHand  1.25776 3.52569 16.0121
LeftUpLeg  -116.433 25.2034 -87.646
LeftLeg  125.437 11.5338 -15.0732
LeftFoot  14.4881 8.05342 -34.5529
LeftToes  1.03528e-008 1.55373e-010 -2.26046e-010
